<?xml version="1.0" encoding="UTF-8" standalone="no"?>
<svg
   xmlns:svg="http://www.w3.org/2000/svg"
   xmlns="http://www.w3.org/2000/svg"
   width="1800"
   height="1024"
   version="1.1">
  <g id="layer1">
    <path
       style="fill:#00ff00"
       d="m 259.54294,774.88996 c 38.86509,-6.99397 38.24457,-6.58325 37.74704,-24.98474 -0.55494,-20.5247 -9.54322,-45.41067 -23.48671,-65.02816 -14.33406,-20.16695 -28.08399,-35.31209 -30.24803,-33.31736 -0.9684,0.8926 -2.09959,11.39435 -2.51373,23.3372 -0.61844,17.83306 1.00591,24.9098 9.08781,39.5925 5.41241,9.83303 9.33549,21.14804 8.71789,25.14452 -1.05209,6.80806 -3.09015,7.26629 -32.3178,7.26629 -27.52346,0 -33.71222,-1.18783 -52.58358,-10.09264 -24.29514,-11.46408 -42.77627,-31.20327 -49.5353,-52.90728 -2.41675,-7.76048 -4.80972,-14.63938 -5.31771,-15.28648 -0.50796,-0.64708 -7.57818,2.2709 -15.71157,6.48441 -17.069283,8.84277 -18.245572,14.48882 -7.343414,35.24732 18.338524,34.91799 58.429834,61.67279 101.672204,67.85056 21.01679,3.00255 29.21041,2.56444 61.8329,-3.30614 z"
       id="path-1"/>
    <path
       style="fill:#00ff00"
       d="m 124.73696,752.47835 c -10.5348,-8.49446 -23.38603,-15.87329 -28.558294,-16.39748 -15.446688,-1.56536 -40.36348,-8.32438 -42.514687,-11.53272 -3.072365,-4.58218 15.138541,-31.12054 28.492791,-41.52188 26.13873,-20.359 66.81048,-30.90639 95.95937,-24.88517 9.30708,1.92254 17.57876,2.89014 18.38153,2.15022 2.79971,-2.58064 -6.49336,-33.93534 -10.80719,-36.46319 -2.39136,-1.40132 -16.50409,-2.57097 -31.36154,-2.5992 -24.07373,-0.0457 -30.23607,1.38641 -56.625005,13.15988 -16.28631,7.26613 -36.282515,19.1786 -44.436069,26.47212 -16.257767,14.54302 -40.790847,56.81447 -42.067438,72.48396 -0.739035,9.07128 1.238447,10.88183 23.29133,21.32502 18.931482,8.96506 30.240317,11.8717 52.739793,13.55534 15.752469,1.17874 34.945119,1.59292 42.650289,0.9204 l 14.00941,-1.22281 -19.15429,-15.44449 z"
       id="path-2"/>
    <path
       style="fill:#00ff00"
       d="m 218.37017,724.03607 c 16.66046,-22.68201 21.82234,-47.197 16.2663,-77.25257 -6.67566,-36.11212 -21.20796,-61.35828 -52.72242,-91.59152 l -27.32164,-26.21097 -13.46871,11.73412 c -22.08958,19.24472 -44.635794,49.56237 -51.257737,68.9257 -3.415834,9.98834 -5.411973,18.89678 -4.435873,19.79649 0.976099,0.89973 9.861668,-1.16353 19.74575,-4.58499 13.48323,-4.66732 19.90962,-9.34522 25.73376,-18.73207 4.2695,-6.88116 11.82152,-16.25234 16.78222,-20.82486 l 9.01945,-8.31367 11.27467,11.1198 c 6.20105,6.11592 15.77528,18.70019 21.27601,27.965 8.34797,14.06038 10.02332,21.01375 10.13403,42.06047 0.12117,23.00684 -0.93857,26.75459 -12.09896,42.79093 -6.72741,9.66658 -14.91114,18.97 -18.18615,20.67423 -4.41772,2.29888 -4.89863,4.08239 -1.86336,6.91072 4.97046,4.63148 30.86322,13.40406 35.9184,12.16932 2.00047,-0.48864 8.84238,-7.97492 15.20426,-16.63613 z"
       id="path-3"/>
  </g>
</svg>
